<svg xmlns="http://www.w3.org/2000/svg" width="45.752" height="43.168" viewBox="0 0 45.752 43.168">
  <g id="Group_643" data-name="Group 643" transform="translate(-1591.283 -364.518)">
    <path id="Icon_awesome-check-circle" data-name="Icon awesome-check-circle" d="M25.731,13.147A12.584,12.584,0,1,1,13.147.563,12.584,12.584,0,0,1,25.731,13.147ZM11.691,19.81l9.337-9.337a.812.812,0,0,0,0-1.148L19.88,8.177a.812.812,0,0,0-1.148,0l-7.614,7.614L7.562,12.236a.812.812,0,0,0-1.148,0L5.266,13.385a.812.812,0,0,0,0,1.148l5.277,5.277a.812.812,0,0,0,1.148,0Z" transform="translate(1611.305 363.955)" fill="#fff"/>
    <g id="Icon_awesome-check-circle-2" data-name="Icon awesome-check-circle" transform="translate(1593.721 378.955)" fill="#fff">
      <path d="M 13.14673233032227 27.2309627532959 C 9.384692192077637 27.2309627532959 5.847822189331055 25.76595306396484 3.18767237663269 23.10579299926758 C 0.5275123119354248 20.44564247131348 -0.9374976754188538 16.90877151489258 -0.9374976754188538 13.14673233032227 C -0.9374976754188538 9.384692192077637 0.5275123119354248 5.847822189331055 3.18767237663269 3.18767237663269 C 5.847822189331055 0.5275123119354248 9.384692192077637 -0.9374976754188538 13.14673233032227 -0.9374976754188538 C 16.90877151489258 -0.9374976754188538 20.44564247131348 0.5275123119354248 23.10579299926758 3.18767237663269 C 25.76595306396484 5.847822189331055 27.2309627532959 9.384692192077637 27.2309627532959 13.14673233032227 C 27.2309627532959 16.90877151489258 25.76595306396484 20.44564247131348 23.10579299926758 23.10579299926758 C 20.44564247131348 25.76595306396484 16.90877151489258 27.2309627532959 13.14673233032227 27.2309627532959 Z M 6.812892436981201 13.95859241485596 L 11.11704254150391 18.26274299621582 L 19.48057174682617 9.899211883544922 L 19.30554580688477 9.724185943603516 L 12.1776819229126 16.85201263427734 L 11.11702251434326 17.91267204284668 L 10.05636215209961 16.85201263427734 L 6.987917423248291 13.78356742858887 L 6.812892436981201 13.95859241485596 Z" stroke="none"/>
      <path d="M 13.14673233032227 25.7309627532959 C 20.09683227539062 25.7309627532959 25.7309627532959 20.09683227539062 25.7309627532959 13.14673233032227 C 25.7309627532959 6.196632385253906 20.09683227539062 0.5625023245811462 13.14673233032227 0.5625023245811462 C 6.196632385253906 0.5625023245811462 0.5625023245811462 6.196632385253906 0.5625023245811462 13.14673233032227 C 0.5625023245811462 20.09683227539062 6.196632385253906 25.7309627532959 13.14673233032227 25.7309627532959 M 6.987936019897461 11.99857234954834 C 7.195722103118896 11.99857234954834 7.403502464294434 12.07783222198486 7.56202220916748 12.23635196685791 L 11.11702251434326 15.79135227203369 L 18.73144149780273 8.176972389221191 C 19.04853439331055 7.859882831573486 19.56261253356934 7.859880447387695 19.87965202331543 8.176972389221191 L 21.02781295776367 9.325132369995117 C 21.34485244750977 9.642171859741211 21.34485244750977 10.15625190734863 21.02781295776367 10.47329235076904 L 11.69112205505371 19.80998229980469 C 11.37403297424316 20.12702178955078 10.86000156402588 20.12702178955078 10.54291248321533 19.80993270874023 L 5.265652179718018 14.53267192840576 C 4.948612213134766 14.21563243865967 4.948612213134766 13.70155239105225 5.265652179718018 13.38451194763184 L 6.413812160491943 12.23635196685791 C 6.572357177734375 12.07783222198486 6.780149936676025 11.99857234954834 6.987936019897461 11.99857234954834 M 13.14673233032227 28.7309627532959 C 11.04419231414795 28.7309627532959 9.002952575683594 28.31850242614746 7.07972240447998 27.50505256652832 C 5.223602294921875 26.7199821472168 3.557272434234619 25.59671211242676 2.127012252807617 24.16645240783691 C 0.6967523097991943 22.73619270324707 -0.4265176653862 21.06986236572266 -1.21158766746521 19.21374320983887 C -2.02503776550293 17.29051208496094 -2.437497615814209 15.24927234649658 -2.437497615814209 13.14673233032227 C -2.437497615814209 11.04419231414795 -2.02503776550293 9.002952575683594 -1.21158766746521 7.07972240447998 C -0.4265176653862 5.223602294921875 0.6967523097991943 3.557272434234619 2.127012252807617 2.127012252807617 C 3.557272434234619 0.6967523097991943 5.223602294921875 -0.4265176653862 7.07972240447998 -1.21158766746521 C 9.002952575683594 -2.02503776550293 11.04419231414795 -2.437497615814209 13.14673233032227 -2.437497615814209 C 15.24927234649658 -2.437497615814209 17.29051208496094 -2.02503776550293 19.21374320983887 -1.21158766746521 C 21.06986236572266 -0.4265176653862 22.73619270324707 0.6967523097991943 24.16645240783691 2.127012252807617 C 25.59671211242676 3.557272434234619 26.7199821472168 5.223602294921875 27.50505256652832 7.07972240447998 C 28.31850242614746 9.002952575683594 28.7309627532959 11.04419231414795 28.7309627532959 13.14673233032227 C 28.7309627532959 15.24927234649658 28.31850242614746 17.29051208496094 27.50505256652832 19.21374320983887 C 26.7199821472168 21.06986236572266 25.59671211242676 22.73619270324707 24.16645240783691 24.16645240783691 C 22.73619270324707 25.59671211242676 21.06986236572266 26.7199821472168 19.21374320983887 27.50505256652832 C 17.29051208496094 28.31850242614746 15.24927234649658 28.7309627532959 13.14673233032227 28.7309627532959 Z" stroke="none" fill="#2785ff"/>
    </g>
  </g>
</svg>
